<?xml version="1.0" encoding="UTF-8"?>
<svg version="1.1" xmlns="http://www.w3.org/2000/svg" width="441" height="446">
<path d="M0 0 C145.53 0 291.06 0 441 0 C441 147.18 441 294.36 441 446 C295.47 446 149.94 446 0 446 C0 298.82 0 151.64 0 0 Z " fill="#EEF7F9" transform="translate(0,0)"/>
<path d="M0 0 C3.98505132 3.2378542 7.68062614 6.79875228 10 11.4375 C10.08308638 12.81298156 10.10736016 14.19235796 10.09765625 15.5703125 C10.09443359 16.37597656 10.09121094 17.18164062 10.08789062 18.01171875 C10.07951172 18.85347656 10.07113281 19.69523437 10.0625 20.5625 C10.05798828 21.41199219 10.05347656 22.26148438 10.04882812 23.13671875 C10.03702874 25.23700909 10.01909306 27.3372633 10 29.4375 C11.32 29.4375 12.64 29.4375 14 29.4375 C14 38.0175 14 46.5975 14 55.4375 C23.57 55.1075 33.14 54.7775 43 54.4375 C39.01884592 47.24559632 39.01884592 47.24559632 34.23046875 46.53515625 C32.88354656 46.48916378 31.5350289 46.47807848 30.1875 46.5 C29.14819336 46.47583008 29.14819336 46.47583008 28.08789062 46.45117188 C26.39228383 46.41609036 24.69590393 46.42256751 23 46.4375 C23 43.7975 23 41.1575 23 38.4375 C42.58999875 36.36778895 42.58999875 36.36778895 48.02246094 39.66503906 C51.5567404 43.05922096 53.71457996 47.14966754 56 51.4375 C56.52343994 51.89640625 57.04687988 52.3553125 57.58618164 52.828125 C59.5250419 55.03516469 59.34575299 56.42108576 59.29296875 59.32421875 C59.28547607 60.16944092 59.2779834 61.01466309 59.27026367 61.88549805 C59.24295166 62.95453369 59.21563965 64.02356934 59.1875 65.125 C59.125625 68.528125 59.06375 71.93125 59 75.4375 C69.56 75.4375 80.12 75.4375 91 75.4375 C91 74.4475 91 73.4575 91 72.4375 C104.2 72.4375 117.4 72.4375 131 72.4375 C131.33 79.6975 131.66 86.9575 132 94.4375 C134.31 95.4275 136.62 96.4175 139 97.4375 C139 93.1475 139 88.8575 139 84.4375 C143.0058814 85.7727938 146.00556477 86.82651977 149.57421875 88.79296875 C150.40211914 89.24639648 151.23001953 89.69982422 152.08300781 90.16699219 C155.60199503 92.13693892 159.10824769 94.12900577 162.61279297 96.12451172 C164.63437023 97.23639989 166.6549323 98.2380711 168.75390625 99.19140625 C171.80967976 100.71730098 173.84709174 101.78000386 176 104.4375 C177.02146597 109.92207581 177.5616508 116.31419839 175 121.4375 C174.83128406 122.78544219 174.69971315 124.13817793 174.58984375 125.4921875 C174.08980329 130.3639267 172.94168035 134.874091 171.5625 139.5625 C171.34529297 140.32175781 171.12808594 141.08101562 170.90429688 141.86328125 C170.47507968 143.36103014 170.04189161 144.8576475 169.60449219 146.35302734 C169.06773042 148.20394493 168.55732575 150.06246064 168.05078125 151.921875 C154.03749554 198.80647401 119.85339341 236.78951137 77.51855469 260.1015625 C52.68669514 273.4055565 24.35261186 282.00588962 -4 281.4375 C-2.49371976 268.4272113 3.179458 255.60785976 10.14453125 244.578125 C11.32001972 241.63672005 11.11789116 240.41117886 10 237.4375 C8.18054734 235.19618687 6.38714237 233.17487947 4.375 231.125 C3.26594046 229.96578688 2.15786124 228.80563504 1.05078125 227.64453125 C0.25148193 226.81236084 0.25148193 226.81236084 -0.56396484 225.96337891 C-2.27402662 224.14632924 -3.85821683 222.24362347 -5.4375 220.3125 C-22.10792835 201.2093058 -46.35365007 187.16812488 -69.12036133 176.71020508 C-70.41623169 176.11308716 -70.41623169 176.11308716 -71.73828125 175.50390625 C-72.51212158 175.15271729 -73.28596191 174.80152832 -74.08325195 174.43969727 C-76 173.4375 -76 173.4375 -78 171.4375 C-79.45577107 170.8169592 -80.94141229 170.26581183 -82.4375 169.75 C-86.10169339 168.46465467 -89.75574898 167.16268826 -93.390625 165.796875 C-102.3835611 162.42289918 -111.39060948 159.27123205 -120.58203125 156.48046875 C-122.7201418 155.82803959 -124.84703894 155.13610651 -126.953125 154.38671875 C-130.57299758 153.25898921 -134.20043331 152.63836897 -137.9375 152.0625 C-139.51707567 151.80951977 -141.09649483 151.55556098 -142.67578125 151.30078125 C-143.94542725 151.09702881 -143.94542725 151.09702881 -145.24072266 150.88916016 C-150.37554071 150.04865287 -155.49970424 149.14643956 -160.625 148.25 C-161.65101318 148.07098145 -162.67702637 147.89196289 -163.73413086 147.70751953 C-166.15619058 147.28476751 -168.57814755 146.86143753 -171 146.4375 C-170.72575195 147.11586914 -170.45150391 147.79423828 -170.16894531 148.49316406 C-169.80897461 149.38745117 -169.44900391 150.28173828 -169.078125 151.203125 C-168.54300293 152.53005371 -168.54300293 152.53005371 -167.99707031 153.88378906 C-167.18574573 155.96176533 -166.4554242 158.07122741 -165.75 160.1875 C-163.80442805 165.45764821 -160.80632648 170.22208812 -157.97265625 175.05078125 C-156.4320309 177.69577566 -154.97968386 180.35158035 -153.5625 183.0625 C-150.31295388 188.94003476 -146.12184459 194.15466918 -142 199.4375 C-141.2678125 200.37722656 -140.535625 201.31695312 -139.78125 202.28515625 C-137.87943433 204.69435931 -135.98246254 207.0942038 -134 209.4375 C-133.36707031 210.2109375 -132.73414063 210.984375 -132.08203125 211.78125 C-130.11200254 213.71193754 -130.11200254 213.71193754 -127.4609375 213.375 C-124.83572528 212.37491916 -123.58273593 211.42280967 -121.625 209.4375 C-111.90668307 200.57614535 -97.50981393 191.87190564 -84.0703125 191.31640625 C-83.38710937 191.35636719 -82.70390625 191.39632812 -82 191.4375 C-79.95480465 195.78354012 -78.79838492 198.57353617 -79 203.4375 C-79.93199219 203.71722656 -80.86398438 203.99695313 -81.82421875 204.28515625 C-95.14574005 208.41723779 -106.39913145 214.22455555 -117 223.4375 C-113.22663473 234.75759581 -90.0052222 243.88894023 -79.4140625 249.328125 C-72.53666183 252.71946874 -65.3284232 255.2145863 -58 257.4375 C-57.21294678 257.6857251 -56.42589355 257.9339502 -55.61499023 258.18969727 C-47.47069224 260.60747624 -39.21735091 261.62185604 -30.8125 262.625 C-29.3690497 262.80330189 -27.92568936 262.98233366 -26.48242188 263.16210938 C-22.98927562 263.59563874 -19.49502462 264.01934926 -16 264.4375 C-16.66178928 270.50283091 -17.93946822 275.70384636 -20 281.4375 C-36.68093236 281.74202006 -52.3994666 278.57700356 -68.08642578 273.08496094 C-70.42590799 272.29339334 -72.79572807 271.67536669 -75.1875 271.0625 C-97.0366016 264.50776952 -121.36691963 248.79689605 -137 232.4375 C-137 231.7775 -137 231.1175 -137 230.4375 C-137.556875 230.210625 -138.11375 229.98375 -138.6875 229.75 C-152.55575919 221.87882586 -163.05353297 203.56635948 -170.94824219 190.21044922 C-171.66341905 189.00487485 -172.38570867 187.80349771 -173.11425781 186.60595703 C-179.15085454 176.66438847 -183.50490648 166.59663221 -187.24731445 155.59204102 C-187.98290096 153.48644552 -188.78312548 151.41595593 -189.59765625 149.33984375 C-191.0042777 145.61984554 -191.83741258 141.91547209 -192.5625 138 C-193.31256265 133.988197 -194.08588189 130.01114883 -195.125 126.0625 C-195.43158589 124.5237308 -195.72036023 122.98139351 -196 121.4375 C-196.13905762 120.82116699 -196.27811523 120.20483398 -196.42138672 119.56982422 C-197.49230151 114.55710579 -198.46767432 109.45205392 -197 104.4375 C-193.40123788 99.48471858 -187.35871807 97.03905979 -182 94.4375 C-180.54696457 93.67272745 -179.09640731 92.9032269 -177.6484375 92.12890625 C-171.86137994 89.09078375 -166.23167946 86.51472649 -160 84.4375 C-160 89.0575 -160 93.6775 -160 98.4375 C-157.36 97.1175 -154.72 95.7975 -152 94.4375 C-151.67 87.1775 -151.34 79.9175 -151 72.4375 C-138.13 72.4375 -125.26 72.4375 -112 72.4375 C-112 73.4275 -112 74.4175 -112 75.4375 C-101.44 75.4375 -90.88 75.4375 -80 75.4375 C-80.2475 72.26125 -80.495 69.085 -80.75 65.8125 C-81.01910752 58.64577114 -80.40408598 53.67740841 -75.75683594 48.05126953 C-73.26380613 45.40089865 -70.670851 42.90909096 -68 40.4375 C-67.67 39.7775 -67.34 39.1175 -67 38.4375 C-59.41 38.4375 -51.82 38.4375 -44 38.4375 C-44 40.7475 -44 43.0575 -44 45.4375 C-45.01320312 45.40527344 -46.02640625 45.37304688 -47.0703125 45.33984375 C-48.42189321 45.34922973 -49.77345838 45.36107963 -51.125 45.375 C-51.79015625 45.34728516 -52.4553125 45.31957031 -53.140625 45.29101562 C-55.4830931 45.26557106 -55.4830931 45.26557106 -59 46.4375 C-60.98 49.4075 -62.96 52.3775 -65 55.4375 C-55.1 55.4375 -45.2 55.4375 -35 55.4375 C-35 46.8575 -35 38.2775 -35 29.4375 C-34.01 29.4375 -33.02 29.4375 -32 29.4375 C-32.03480469 28.35210937 -32.06960937 27.26671875 -32.10546875 26.1484375 C-32.13362388 24.70314058 -32.16092219 23.25782679 -32.1875 21.8125 C-32.21263672 21.09964844 -32.23777344 20.38679688 -32.26367188 19.65234375 C-32.36058939 12.60967122 -29.86173371 7.56933002 -25 2.4375 C-18.3263211 -2.93045912 -7.75924244 -4.00085938 0 0 Z " fill="#15394F" transform="translate(233,143.5625)"/>
<path d="M0 0 C0.69310272 -0.00261841 1.38620544 -0.00523682 2.10031128 -0.00793457 C14.92200396 -0.01307846 27.13403885 1.37804351 39.625 4.3125 C40.3866748 4.48861816 41.14834961 4.66473633 41.93310547 4.84619141 C48.77422351 6.46296088 55.16843319 8.49508903 61.625 11.3125 C63.45682875 11.96258865 65.29020308 12.60833647 67.125 13.25 C88.55854324 21.4974694 108.61784914 33.64222708 125.02490234 49.75195312 C126.80446169 51.48752581 128.61507346 53.18759553 130.42578125 54.890625 C160.95192519 84.0174694 184.50117378 127.70891587 185.68896484 170.62353516 C185.7751084 175.85599606 185.73177124 181.08070906 185.625 186.3125 C181.51863966 185.03689916 177.822216 183.50123018 174.02734375 181.484375 C172.98505615 180.93467041 171.94276855 180.38496582 170.86889648 179.81860352 C169.77778564 179.23908936 168.6866748 178.6595752 167.5625 178.0625 C155.20297811 171.57700305 142.96483227 165.66504539 129.83984375 160.87890625 C126.99531669 159.83628812 124.18207373 158.73895635 121.37890625 157.58984375 C111.31503993 153.48719593 101.20555858 150.38847624 90.68359375 147.671875 C85.92003663 146.4318321 81.27072789 144.9354246 76.625 143.3125 C77.5 139.4375 77.5 139.4375 78.625 138.3125 C85.94653402 138.47113324 93.28499713 139.44588674 100.5625 140.25 C101.27148438 140.32452393 101.98046875 140.39904785 102.7109375 140.47583008 C106.93500174 140.96441218 110.62109218 141.92421035 114.625 143.3125 C117.88237051 144.14111964 121.16110137 144.8756998 124.4375 145.625 C138.54616319 148.92849187 152.19890298 152.82531252 165.625 158.3125 C160.11982435 135.91921699 160.11982435 135.91921699 150.59326172 115.05493164 C149.625 113.3125 149.625 113.3125 148.203125 109.8984375 C146.31431732 105.60654283 143.94958193 101.84459491 141.375 97.9375 C140.88193359 97.18509033 140.38886719 96.43268066 139.88085938 95.6574707 C122.34813229 69.12572102 99.2963705 50.51814693 71.625 35.3125 C70.98916992 34.95953857 70.35333984 34.60657715 69.69824219 34.24291992 C63.88694785 31.16533653 57.75984597 29.21459379 51.5 27.25 C50.38633057 26.89856934 49.27266113 26.54713867 48.12524414 26.18505859 C40.34347476 23.7664849 32.67970496 21.61734258 24.625 20.3125 C23.45324219 20.11011719 22.28148437 19.90773438 21.07421875 19.69921875 C-4.88049159 15.80203548 -31.73219237 18.22513059 -56.375 27.3125 C-57.56351563 27.73015625 -58.75203125 28.1478125 -59.9765625 28.578125 C-101.43885102 44.02660081 -136.4376825 76.3809153 -155.46044922 116.27001953 C-160.69899377 127.96934247 -164.26680434 139.77339592 -166.5 152.375 C-166.66757813 153.31472656 -166.83515625 154.25445312 -167.0078125 155.22265625 C-167.12898438 155.91230469 -167.25015625 156.60195312 -167.375 157.3125 C-164.54101904 156.37692295 -161.70781627 155.43909191 -158.875 154.5 C-158.08351563 154.23896484 -157.29203125 153.97792969 -156.4765625 153.70898438 C-152.70083173 152.45556555 -148.9560495 151.1678008 -145.24609375 149.73046875 C-138.50632759 147.17524591 -131.40237936 145.84233134 -124.375 144.3125 C-123.40159668 144.09770996 -122.42819336 143.88291992 -121.42529297 143.66162109 C-110.83279164 141.34663764 -100.28052403 139.05150423 -89.4375 138.375 C-88.74011719 138.32964111 -88.04273438 138.28428223 -87.32421875 138.23754883 C-85.41015625 138.16015625 -85.41015625 138.16015625 -82.375 138.3125 C-80.375 140.3125 -80.375 140.3125 -80.375 143.3125 C-80.93147217 143.4576001 -81.48794434 143.6027002 -82.0612793 143.75219727 C-96.02730814 147.41754805 -109.74785616 151.53975577 -123.375 156.3125 C-124.06190918 156.54904297 -124.74881836 156.78558594 -125.45654297 157.02929688 C-143.85049899 163.39909846 -161.44256729 172.00548533 -178.5078125 181.31591797 C-181.76158832 183.05256976 -185.06903961 184.67780498 -188.375 186.3125 C-188.62232794 159.79344865 -188.62232794 159.79344865 -185.19140625 148.125 C-184.349585 145.22494594 -183.63740102 142.31228951 -182.9375 139.375 C-177.17062523 116.21786037 -166.34593597 94.59392238 -152.375 75.3125 C-151.73949219 74.43207031 -151.10398438 73.55164063 -150.44921875 72.64453125 C-133.05682993 50.16338739 -110.6668146 32.07217256 -85.375 19.3125 C-84.74851562 18.98846191 -84.12203125 18.66442383 -83.4765625 18.33056641 C-57.26108108 4.85012706 -29.24813366 0.10719556 0 0 Z " fill="#193B50" transform="translate(224.375,45.6875)"/>
<path d="M0 0 C5.61 0 11.22 0 17 0 C17 15.18 17 30.36 17 46 C21.95 43.525 21.95 43.525 27 41 C27.99 41 28.98 41 30 41 C30 27.47 30 13.94 30 0 C46.58551409 -0.09033126 63.17081792 -0.16399983 79.75650978 -0.20724869 C87.45771727 -0.22786458 95.15876094 -0.25596638 102.85986328 -0.30175781 C109.57299357 -0.34165561 116.28600521 -0.3674399 122.99925077 -0.37635398 C126.55316379 -0.38156382 130.10673741 -0.39378797 133.66054153 -0.42292023 C137.6300411 -0.4551955 141.59921012 -0.45595751 145.56884766 -0.45410156 C146.74417053 -0.46848267 147.91949341 -0.48286377 149.13043213 -0.49768066 C155.50955532 -0.46535973 159.06309942 -0.09356028 164 4 C167.185374 4.6836115 167.185374 4.6836115 170.375 4.75 C171.96441406 4.83507812 171.96441406 4.83507812 173.5859375 4.921875 C174.38257813 4.94765625 175.17921875 4.9734375 176 5 C175.88529863 6.75070517 175.75780972 8.50057536 175.625 10.25 C175.55539062 11.22453125 175.48578125 12.1990625 175.4140625 13.203125 C174.98845505 16.07798287 174.69273644 17.6504079 173 20 C170.26049805 20.74194336 170.26049805 20.74194336 166.76171875 21.08984375 C165.476604 21.23172119 164.19148926 21.37359863 162.86743164 21.51977539 C162.18520538 21.58762238 161.50297913 21.65546936 160.80007935 21.72537231 C157.24943896 22.08189816 153.70676665 22.50217353 150.1640625 22.9296875 C149.45933304 23.01438797 148.75460358 23.09908844 148.02851868 23.18635559 C139.57012811 24.24423226 131.45204422 26.32708174 123.21826172 28.46240234 C119.87639574 29.27230647 116.5177727 29.8135564 113.125 30.375 C97.70239189 33.14477452 82.6421409 38.49333696 68 44 C67.7653353 46.07769089 67.7653353 46.07769089 69.328125 47.33984375 C69.96234375 47.86707031 70.5965625 48.39429688 71.25 48.9375 C90.47306946 65.31772116 106.96113383 82.94170075 121 104 C120.88656645 107.34899056 120.2954624 108.68560506 117.98828125 111.140625 C110.61783033 116.95090747 103.00803421 122.11406158 95 127 C94.08089844 127.56460938 93.16179687 128.12921875 92.21484375 128.7109375 C87.80481255 131.30676074 87.80481255 131.30676074 86 132 C83 131 83 131 81.34375 128.18359375 C80.72358448 126.9376588 80.10943568 125.68871833 79.5 124.4375 C63.70509021 93.59433538 34.13810553 60.71191609 2.77807617 45.42993164 C-0.29295973 42.74375357 -0.42323054 42.42116052 -0.68115234 38.59863281 C-0.68020511 36.79985044 -0.64645603 35.00088929 -0.5859375 33.203125 C-0.57744781 32.25435486 -0.56895813 31.30558472 -0.56021118 30.32806396 C-0.526652 27.30088221 -0.45136782 24.27637496 -0.375 21.25 C-0.34490366 19.19665308 -0.31752728 17.14326437 -0.29296875 15.08984375 C-0.2268522 10.05886702 -0.12331254 5.02988674 0 0 Z " fill="#F4F8F8" transform="translate(214,257)"/>
<path d="M0 0 C8.65861301 0.3585347 16.95624144 1.83524548 25.4362793 3.54003906 C29.37629518 4.32855809 33.26925053 5.06734407 37.265625 5.5 C40.81005272 5.97456773 43.63368556 6.8317372 47 8 C48.82664106 8.60075528 50.65329925 9.20145917 52.4803009 9.80111694 C55.34045108 10.74095975 58.19893059 11.68583729 61.05737305 12.63085938 C62.55488268 13.12500351 64.05292709 13.61753004 65.55151367 14.10839844 C73.54106261 16.72677035 81.38444669 19.40788025 89 23 C89.8559375 23.33644531 90.711875 23.67289062 91.59375 24.01953125 C97.90271883 26.59023121 103.9340152 29.90528762 110 33 C111.12535156 33.57105469 112.25070313 34.14210938 113.41015625 34.73046875 C135.85023665 46.4371278 157.75124783 62.49269049 174 82 C173.01 82.495 173.01 82.495 172 83 C171.72929687 83.82242188 171.45859375 84.64484375 171.1796875 85.4921875 C169.66011705 90.01064532 167.4149183 93.95701622 165.125 98.125 C161.26930192 105.26873256 158.10496022 112.12996218 156 120 C155.67 119.34 155.34 118.68 155 118 C153.16308594 118.05220703 153.16308594 118.05220703 151.2890625 118.10546875 C145.23120774 118.09955056 139.35166544 117.23942545 133.375 116.3125 C132.22507568 116.13460937 131.07515137 115.95671875 129.89038086 115.7734375 C121.17085405 114.34793527 113.23935967 112.21718471 105 109 C104.18644043 108.72124023 103.37288086 108.44248047 102.53466797 108.15527344 C95.64720688 105.77692226 89.36460804 102.78539438 83 99.25 C82.03884277 98.72067871 81.07768555 98.19135742 80.08740234 97.64599609 C73.31951749 93.86512544 67.06924551 89.83391235 61 85 C59.44029788 83.82959551 57.87800198 82.66263532 56.3125 81.5 C55.20769089 80.66751859 54.10324826 79.83454883 53 79 C54.27343581 75.17969257 56.53958555 73.61585895 59.625 71.25 C60.19677979 70.81042969 60.76855957 70.37085938 61.35766602 69.91796875 C69.7961903 63.67243655 81.38378994 57 92 57 C91.7834375 56.38511719 91.566875 55.77023437 91.34375 55.13671875 C91.0653125 54.32847656 90.786875 53.52023437 90.5 52.6875 C90.2215625 51.88699219 89.943125 51.08648437 89.65625 50.26171875 C89 48 89 48 89 45 C73.72771712 49.1635574 58.75214424 54.15945026 47.29296875 65.734375 C45 68 45 68 42.625 68.25 C35.47841672 64.84686511 30.60695625 57.17638108 26.0625 50.9375 C25.45204834 50.10331543 24.84159668 49.26913086 24.21264648 48.40966797 C19.24159332 41.52138785 14.98951155 34.49490261 11 27 C10.37480469 25.90171875 9.74960938 24.8034375 9.10546875 23.671875 C0 7.49289474 0 7.49289474 0 0 Z " fill="#70BBB2" transform="translate(62,290)"/>
<path d="M0 0 C1.25923279 -0.00058411 2.51846558 -0.00116821 3.81585693 -0.00177002 C7.25151473 -0.00291297 10.6866086 0.02052718 14.12213588 0.04852581 C17.71889142 0.07361018 21.31566133 0.07588698 24.91249084 0.08062744 C31.71578909 0.09303667 38.5188288 0.12583014 45.32201344 0.1660254 C53.07048026 0.21080735 60.81895973 0.23274624 68.56752384 0.25280714 C84.49969936 0.29456493 100.43151896 0.3678912 116.36352539 0.45410156 C116.36352539 11.34410156 116.36352539 22.23410156 116.36352539 33.45410156 C111.57368656 31.85748862 107.41323013 30.02519528 102.98852539 27.70410156 C95.58324029 23.90972203 88.05099175 20.92155942 80.22143555 18.13330078 C77.40648437 17.10423453 74.6406196 15.95569095 71.86352539 14.82910156 C64.54348618 11.98395425 57.00234346 10.20936271 49.36352539 8.45410156 C47.74237582 12.39799066 46.49281498 16.3402609 45.36352539 20.45410156 C47.13083008 20.628125 47.13083008 20.628125 48.93383789 20.80566406 C52.95139598 21.31468392 56.44635915 22.36797738 60.23852539 23.82910156 C60.89272461 24.08095215 61.54692383 24.33280273 62.22094727 24.59228516 C108.09952574 42.51554406 151.90490378 67.6886789 182.36352539 107.45410156 C182.80438477 108.02386719 183.24524414 108.59363281 183.69946289 109.18066406 C200.36352539 130.81632532 200.36352539 130.81632532 200.36352539 139.45410156 C198.78627192 140.15543755 197.20141206 140.83968456 195.61352539 141.51660156 C194.73180664 141.89945313 193.85008789 142.28230469 192.94165039 142.67675781 C190.11850608 143.5279786 188.99959699 143.75279512 186.36352539 142.45410156 C184.76586914 140.34472656 184.76586914 140.34472656 183.30102539 137.70410156 C182.81504883 136.84300781 182.32907227 135.98191406 181.82836914 135.09472656 C181.10327148 133.78761719 181.10327148 133.78761719 180.36352539 132.45410156 C174.10956181 121.66559295 166.25436756 111.1969872 157.36352539 102.45410156 C156.60813477 101.67550781 155.85274414 100.89691406 155.07446289 100.09472656 C149.18088768 94.06317468 143.01191648 88.63728249 136.36352539 83.45410156 C135.42766602 82.72449219 134.49180664 81.99488281 133.52758789 81.24316406 C126.24539474 75.67902184 118.69696206 70.58376219 111.0378418 65.56152344 C108.79247148 64.07639661 106.58108818 62.54282876 104.36352539 61.01660156 C100.84612815 58.66949077 97.27812441 57.07393564 93.36352539 55.45410156 C91.58488778 54.48918379 89.81473872 53.50853571 88.05102539 52.51660156 C83.71433952 50.11392335 79.38363723 48.14532336 74.75415039 46.38378906 C72.45205359 45.48852919 70.22855807 44.49354119 67.98852539 43.45410156 C63.61621685 41.48617985 59.1467703 39.99073551 54.58618164 38.52050781 C51.22946411 37.40973946 47.92721861 36.18684068 44.61352539 34.95410156 C37.72456598 32.4873126 30.75599084 30.6356197 23.63598633 28.98535156 C21.21029273 28.41827923 18.79111819 27.82712053 16.37133789 27.23535156 C2.15107341 23.81950756 -12.16063186 21.4990355 -26.63647461 19.45410156 C-27.14118658 17.68460544 -27.64008146 15.91344934 -28.13647461 14.14160156 C-28.41491211 13.15546875 -28.69334961 12.16933594 -28.98022461 11.15332031 C-29.63647461 8.45410156 -29.63647461 8.45410156 -29.63647461 5.45410156 C-28.67547852 5.41542969 -28.67547852 5.41542969 -27.69506836 5.37597656 C-26.83010742 5.31925781 -25.96514648 5.26253906 -25.07397461 5.20410156 C-24.22706055 5.15769531 -23.38014648 5.11128906 -22.50756836 5.06347656 C-19.4642211 4.61160835 -19.4642211 4.61160835 -16.74681091 2.44439697 C-11.49378697 -0.60791446 -5.91344859 -0.07200362 0 0 Z " fill="#F3F7F7" transform="translate(84.636474609375,256.5458984375)"/>
<path d="M0 0 C1.1698314 1.11803075 2.33111649 2.24613022 3.45214844 3.41308594 C5.1934176 5.1982988 6.99742626 6.89978644 8.8203125 8.6015625 C13.22711903 12.72010194 17.61816212 16.85490597 22 21 C22.8343457 21.78697266 22.8343457 21.78697266 23.68554688 22.58984375 C35.34406975 33.65088648 45.09846944 46.64770416 54 60 C53.88656645 63.34899056 53.2954624 64.68560506 50.98828125 67.140625 C43.61783033 72.95090747 36.00803421 78.11406158 28 83 C27.08089844 83.56460938 26.16179687 84.12921875 25.21484375 84.7109375 C20.80481255 87.30676074 20.80481255 87.30676074 19 88 C16 87 16 87 14.34375 84.18359375 C13.72358448 82.9376588 13.10943568 81.68871833 12.5 80.4375 C0.01111289 56.05009886 -19.82101502 33.07567708 -42 17 C-39.20574368 15.13716246 -36.63801314 14.11565483 -33.50390625 12.984375 C-30.45639927 11.78629113 -27.52304965 10.39890299 -24.5625 9 C-20.09882478 6.91007114 -15.70842672 5.11179225 -11.00390625 3.65625 C-8.95962305 2.98677714 -7.02814021 2.18432399 -5.0625 1.3125 C-2 0 -2 0 0 0 Z " fill="#70BDB5" transform="translate(281,301)"/>
<path d="M0 0 C8.65861301 0.3585347 16.95624144 1.83524548 25.4362793 3.54003906 C29.37629518 4.32855809 33.26925053 5.06734407 37.265625 5.5 C40.81005272 5.97456773 43.63368556 6.8317372 47 8 C48.82664106 8.60075528 50.65329925 9.20145917 52.4803009 9.80111694 C55.34045108 10.74095975 58.19893059 11.68583729 61.05737305 12.63085938 C62.55488268 13.12500351 64.05292709 13.61753004 65.55151367 14.10839844 C73.5411011 16.72678297 81.38430367 19.40811934 89 23 C89.84304687 23.33 90.68609375 23.66 91.5546875 24 C95.17161362 25.47912634 98.63507729 27.24550334 102.125 29 C102.84042969 29.35578125 103.55585938 29.7115625 104.29296875 30.078125 C104.98261719 30.42359375 105.67226562 30.7690625 106.3828125 31.125 C107.00559082 31.43695313 107.62836914 31.74890625 108.27001953 32.0703125 C110 33 110 33 113 35 C113 35.66 113 36.32 113 37 C112.38817871 37.17015625 111.77635742 37.3403125 111.14599609 37.515625 C76.51909271 46.36065565 76.51909271 46.36065565 47.18359375 65.81640625 C45 68 45 68 42.625 68.25 C35.47841672 64.84686511 30.60695625 57.17638108 26.0625 50.9375 C25.45204834 50.10331543 24.84159668 49.26913086 24.21264648 48.40966797 C19.24159332 41.52138785 14.98951155 34.49490261 11 27 C10.37480469 25.90171875 9.74960938 24.8034375 9.10546875 23.671875 C0 7.49289474 0 7.49289474 0 0 Z " fill="#77C0BA" transform="translate(62,290)"/>
<path d="M0 0 C16.58551409 -0.09033126 33.17081792 -0.16399983 49.75650978 -0.20724869 C57.45771727 -0.22786458 65.15876094 -0.25596638 72.85986328 -0.30175781 C79.57299357 -0.34165561 86.28600521 -0.3674399 92.99925077 -0.37635398 C96.55316379 -0.38156382 100.10673741 -0.39378797 103.66054153 -0.42292023 C107.6300411 -0.4551955 111.59921012 -0.45595751 115.56884766 -0.45410156 C116.74417053 -0.46848267 117.91949341 -0.48286377 119.13043213 -0.49768066 C125.50955532 -0.46535973 129.06309942 -0.09356028 134 4 C137.185374 4.6836115 137.185374 4.6836115 140.375 4.75 C141.96441406 4.83507812 141.96441406 4.83507812 143.5859375 4.921875 C144.38257813 4.94765625 145.17921875 4.9734375 146 5 C146 6.98 146 8.96 146 11 C145.67 11 145.34 11 145 11 C145 9.35 145 7.7 145 6 C105.14441671 6.48389781 65.14425086 17.27034068 27.625 30.125 C26.43092529 30.53266602 25.23685059 30.94033203 24.0065918 31.36035156 C17.56158633 33.60927412 11.36004869 36.08966829 5.22021484 39.07763672 C3 40 3 40 0 40 C0 26.8 0 13.6 0 0 Z " fill="#7AC4BF" transform="translate(244,257)"/>
<path d="M0 0 C-1.40095711 13.30909257 -9.5294403 27.04020161 -17.31640625 37.63671875 C-19.03085122 40.04330623 -20.51967003 42.50628034 -22 45.0625 C-26.1216823 52.04188202 -30.52314947 58.06209344 -37 63 C-37.34667725 62.50709473 -37.69335449 62.01418945 -38.05053711 61.50634766 C-47.13568651 48.61709384 -47.13568651 48.61709384 -57.48828125 36.75 C-59 35 -59 35 -59 33 C-60.485 32.505 -60.485 32.505 -62 32 C-63.6484375 30.29296875 -63.6484375 30.29296875 -65.375 28.1875 C-67.45221615 25.71943346 -69.24937156 23.80604434 -71.8125 21.8125 C-74.34576501 19.71350899 -74.89897035 18.04402316 -76 15 C-65.64760099 11.52294424 -55.49435039 8.43402842 -44.7109375 6.640625 C-42.03550012 6.17876002 -39.43425097 5.66117556 -36.79296875 5.0546875 C-31.20913826 3.79006518 -25.5820031 2.82572728 -19.9375 1.875 C-18.90044922 1.69324219 -17.86339844 1.51148438 -16.79492188 1.32421875 C-11.10860637 0.36508119 -5.76582795 -0.20765287 0 0 Z " fill="#71BEB6" transform="translate(383,290)"/>
<path d="M0 0 C1.25923279 -0.00058411 2.51846558 -0.00116821 3.81585693 -0.00177002 C7.25151473 -0.00291297 10.6866086 0.02052718 14.12213588 0.04852581 C17.71889142 0.07361018 21.31566133 0.07588698 24.91249084 0.08062744 C31.71578909 0.09303667 38.5188288 0.12583014 45.32201344 0.1660254 C53.07048026 0.21080735 60.81895973 0.23274624 68.56752384 0.25280714 C84.49969936 0.29456493 100.43151896 0.3678912 116.36352539 0.45410156 C116.36352539 11.34410156 116.36352539 22.23410156 116.36352539 33.45410156 C111.57368656 31.85748862 107.41323013 30.02519528 102.98852539 27.70410156 C95.58324029 23.90972203 88.05099175 20.92155942 80.22143555 18.13330078 C77.40648437 17.10423453 74.6406196 15.95569095 71.86352539 14.82910156 C64.54348618 11.98395425 57.00234346 10.20936271 49.36352539 8.45410156 C47.87212518 12.0760735 46.57609919 15.72976774 45.36352539 19.45410156 C44.5449707 19.23496094 43.72641602 19.01582031 42.88305664 18.79003906 C19.34492176 12.68847828 -4.33897315 7.87675958 -28.63647461 6.45410156 C-28.96647461 7.11410156 -29.29647461 7.77410156 -29.63647461 8.45410156 C-29.63647461 7.46410156 -29.63647461 6.47410156 -29.63647461 5.45410156 C-28.67547852 5.41542969 -28.67547852 5.41542969 -27.69506836 5.37597656 C-26.83010742 5.31925781 -25.96514648 5.26253906 -25.07397461 5.20410156 C-24.22706055 5.15769531 -23.38014648 5.11128906 -22.50756836 5.06347656 C-19.4642211 4.61160835 -19.4642211 4.61160835 -16.74681091 2.44439697 C-11.49378697 -0.60791446 -5.91344859 -0.07200362 0 0 Z " fill="#79C2BE" transform="translate(84.636474609375,256.5458984375)"/>
<path d="M0 0 C4.24908336 1.59846469 6.82225739 4.8130392 9.75 8.125 C10.25660156 8.68832031 10.76320312 9.25164062 11.28515625 9.83203125 C12.52884532 11.21651531 13.76516305 12.60761488 15 14 C14.34 14.33 13.68 14.66 13 15 C12.72929687 15.82242187 12.45859375 16.64484375 12.1796875 17.4921875 C10.66011705 22.01064532 8.4149183 25.95701622 6.125 30.125 C2.26930192 37.26873256 -0.89503978 44.12996218 -3 52 C-3.33 51.34 -3.66 50.68 -4 50 C-5.83304688 50.05414063 -5.83304688 50.05414063 -7.703125 50.109375 C-13.80870464 50.10460129 -19.72933546 49.19718842 -25.75 48.25 C-27.47065674 47.98364746 -27.47065674 47.98364746 -29.22607422 47.71191406 C-37.07967285 46.442578 -44.54489471 44.83716557 -52 42 C-50.87464844 41.12408203 -50.87464844 41.12408203 -49.7265625 40.23046875 C-47.42852455 38.35055518 -45.41635918 36.45727605 -43.375 34.3125 C-38.5802176 29.45462836 -33.32751973 25.25451223 -28 21 C-27.20851562 20.34128906 -26.41703125 19.68257813 -25.6015625 19.00390625 C-20.01538562 14.39206255 -14.16692524 10.33933239 -8.08886719 6.41235352 C-5.12673241 4.48681091 -2.34156317 2.66990044 0 0 Z " fill="#69B5AB" transform="translate(221,358)"/>
<path d="M0 0 C2.89700736 1.08898298 4.65835031 2.7818172 6.921875 4.87890625 C7.72109375 5.61238281 8.5203125 6.34585937 9.34375 7.1015625 C9.94703125 7.66746094 10.5503125 8.23335938 11.171875 8.81640625 C11.078125 10.546875 11.078125 10.546875 10.171875 12.81640625 C8.02356465 14.41288414 5.96375482 15.77524533 3.671875 17.12890625 C2.3795919 17.92658774 1.08922222 18.72737735 -0.19921875 19.53125 C-0.82683105 19.9216748 -1.45444336 20.31209961 -2.10107422 20.71435547 C-12.26150738 27.19784364 -21.30134306 35.86861501 -30.390625 43.75390625 C-31.009375 44.28886719 -31.628125 44.82382812 -32.265625 45.375 C-33.99968087 46.90936527 -33.99968087 46.90936527 -35.890625 49.31640625 C-37.828125 50.81640625 -37.828125 50.81640625 -41.015625 50.75390625 C-45.38478667 49.67952223 -49.59772131 48.34165384 -53.828125 46.81640625 C-53.27838789 42.75024727 -51.16583291 40.60059436 -48.453125 37.62890625 C-47.66164062 36.74847656 -46.87015625 35.86804688 -46.0546875 34.9609375 C-43.828125 32.81640625 -43.828125 32.81640625 -40.828125 31.81640625 C-40.828125 31.15640625 -40.828125 30.49640625 -40.828125 29.81640625 C-34.06972836 22.60457086 -10.17042753 -1.02138909 0 0 Z " fill="#F5FBFB" transform="translate(209.828125,348.18359375)"/>
<path d="M0 0 C0 0.66 0 1.32 0 2 C-0.61182129 2.17015625 -1.22364258 2.3403125 -1.85400391 2.515625 C-36.48618461 11.35259642 -36.48618461 11.35259642 -65.8125 30.8203125 C-68 33 -68 33 -70.4375 33.1875 C-73.98243485 31.54472531 -76.78821755 29.24546772 -79 26 C-79 24.68 -79 23.36 -79 22 C-76.93006416 20.3158806 -75.0204814 18.98470005 -72.75 17.625 C-72.10885254 17.23070801 -71.46770508 16.83641602 -70.80712891 16.43017578 C-59.45512908 9.54361458 -47.79548214 4.99821384 -35.25976562 0.77099609 C-32.38460914 -0.20996158 -29.53509564 -1.25448449 -26.6875 -2.3125 C-25.12624774 -2.87845395 -23.56391904 -3.44145749 -22 -4 C-21.34 -4.2371875 -20.68 -4.474375 -20 -4.71875 C-11.99985788 -7.33948621 -6.75957178 -4.07076434 0 0 Z " fill="#F0F8F7" transform="translate(175,325)"/>
<path d="M0 0 C1.23943359 0.17402344 1.23943359 0.17402344 2.50390625 0.3515625 C5.37843638 0.92549576 8.08662993 1.73649866 10.8125 2.8125 C10.8125 3.8025 10.8125 4.7925 10.8125 5.8125 C10.26311768 6.00360352 9.71373535 6.19470703 9.14770508 6.39160156 C6.63641888 7.27167698 4.13079659 8.16691989 1.625 9.0625 C0.32852539 9.51302734 0.32852539 9.51302734 -0.99414062 9.97265625 C-5.7673359 11.69173807 -9.33976309 13.40818258 -13.1875 16.8125 C-15.51421865 17.82779541 -17.8478447 18.82738198 -20.1875 19.8125 C-22.26143741 21.0632298 -24.20810265 22.41243846 -26.1875 23.8125 C-30.48701803 22.22008592 -32.58421947 19.45709275 -35.1875 15.8125 C-34.1875 12.8125 -34.1875 12.8125 -32.38085938 11.6015625 C-31.60548828 11.21742188 -30.83011719 10.83328125 -30.03125 10.4375 C-29.17273438 10.00953125 -28.31421875 9.5815625 -27.4296875 9.140625 C-26.52476563 8.70234375 -25.61984375 8.2640625 -24.6875 7.8125 C-23.81351563 7.37421875 -22.93953125 6.9359375 -22.0390625 6.484375 C-6.88493859 -0.98026764 -6.88493859 -0.98026764 0 0 Z " fill="#F0F9F9" transform="translate(120.1875,302.1875)"/>
<path d="M0 0 C2.61588503 3.55760365 3.49357808 6.64477147 4 11 C4.99 11.33 5.98 11.66 7 12 C5.87926138 12.83905565 4.75325453 13.67107831 3.625 14.5 C2.99851563 14.9640625 2.37203125 15.428125 1.7265625 15.90625 C0 17 0 17 -2 17 C-2 17.66 -2 18.32 -2 19 C-3.4609375 20.4375 -3.4609375 20.4375 -5.375 22 C-7.34164804 23.61864036 -9.19674196 25.19674196 -11 27 C-15.29 23.7 -19.58 20.4 -24 17 C-22.68383496 13.05150488 -20.14661163 11.47301236 -16.9375 9.0625 C-16.35057373 8.61664551 -15.76364746 8.17079102 -15.15893555 7.71142578 C-4.81971281 0 -4.81971281 0 0 0 Z " fill="#559789" transform="translate(139,352)"/>
<path d="M0 0 C2.10706291 3.42397723 2.08680713 6.03942467 2 10 C-1.91336793 11.34315504 -5.83119282 12.67280672 -9.75 14 C-10.86117187 14.3815625 -11.97234375 14.763125 -13.1171875 15.15625 C-14.18710938 15.5171875 -15.25703125 15.878125 -16.359375 16.25 C-17.34389648 16.58515625 -18.32841797 16.9203125 -19.34277344 17.265625 C-22 18 -22 18 -26 18 C-27.484375 16.35546875 -27.484375 16.35546875 -28.75 14.1875 C-29.17796875 13.47980469 -29.6059375 12.77210938 -30.046875 12.04296875 C-31 10 -31 10 -31 7 C-20.93820818 3.09808467 -10.92034838 -0.6300201 0 0 Z " fill="#F1F7F7" transform="translate(170,344)"/>
<path d="M0 0 C0.33 4.95 0.66 9.9 1 15 C-1.57763075 16.51061151 -4.16129605 18.00858405 -6.75 19.5 C-7.47960937 19.92925781 -8.20921875 20.35851562 -8.9609375 20.80078125 C-10.02441406 21.40986328 -10.02441406 21.40986328 -11.109375 22.03125 C-11.75874023 22.40830078 -12.40810547 22.78535156 -13.07714844 23.17382812 C-15 24 -15 24 -19 24 C-19.12117188 23.14535156 -19.24234375 22.29070312 -19.3671875 21.41015625 C-19.61855469 19.75306641 -19.61855469 19.75306641 -19.875 18.0625 C-20.03742187 16.96035156 -20.19984375 15.85820312 -20.3671875 14.72265625 C-20.57601562 13.82417969 -20.78484375 12.92570313 -21 12 C-21.66 11.67 -22.32 11.34 -23 11 C-19.87517628 9.35383182 -16.75011114 7.70812246 -13.625 6.0625 C-12.29082031 5.35963867 -12.29082031 5.35963867 -10.9296875 4.64257812 C-10.07890625 4.19462891 -9.228125 3.74667969 -8.3515625 3.28515625 C-7.56604004 2.87144775 -6.78051758 2.45773926 -5.97119141 2.03149414 C-2.08899408 0 -2.08899408 0 0 0 Z " fill="#57998E" transform="translate(73,228)"/>
<path d="M0 0 C3.86682359 1.2889412 6.84283848 2.29998995 10.3046875 4.1640625 C11.05234375 4.56367188 11.8 4.96328125 12.5703125 5.375 C13.33085937 5.7875 14.09140625 6.2 14.875 6.625 C15.65875 7.04523438 16.4425 7.46546875 17.25 7.8984375 C19.16892057 8.9281022 21.08477603 9.96347567 23 11 C22.34 11.66 21.68 12.32 21 13 C20.32059533 15.42715206 20.32059533 15.42715206 19.875 18.125 C19.70742188 19.03507812 19.53984375 19.94515625 19.3671875 20.8828125 C19.24601562 21.58148438 19.12484375 22.28015625 19 23 C13.05612032 22.74157045 9.30939289 20.66287072 4.33203125 17.47265625 C2.26598919 16.16796972 0.20414145 15.04886731 -2 14 C-1.34 13.67 -0.68 13.34 0 13 C0 8.71 0 4.42 0 0 Z " fill="#56988C" transform="translate(372,228)"/>
<path d="M0 0 C11.3472097 14.02155208 11.3472097 14.02155208 13 21 C7.69251028 22.67753327 2.59092076 23.54705027 -2.9375 24.125 C-3.71673828 24.21136719 -4.49597656 24.29773438 -5.29882812 24.38671875 C-7.1986337 24.59651323 -9.09924174 24.79901994 -11 25 C-7.85216578 16.3643486 -4.26853566 8.14102162 0 0 Z " fill="#519489" transform="translate(245,383)"/>
<path d="M0 0 C7.32153402 0.15863324 14.65999713 1.13338674 21.9375 1.9375 C22.64648438 2.01202393 23.35546875 2.08654785 24.0859375 2.16333008 C28.29018404 2.64961994 32.02841268 3.55631351 36 5 C37.66088045 5.36106097 39.32618981 5.70462173 41 6 C41 6.33 41 6.66 41 7 C36.71 6.67 32.42 6.34 28 6 C28 5.34 28 4.68 28 4 C22.555 3.505 22.555 3.505 17 3 C17.99 4.32 18.98 5.64 20 7 C19.01 7.495 19.01 7.495 18 8 C21.465 9.485 21.465 9.485 25 11 C21.06954886 12.51395155 18.24271774 11.44333344 14.3125 10.25 C12.46205078 9.693125 12.46205078 9.693125 10.57421875 9.125 C6.36357302 7.799682 2.17317078 6.43902441 -2 5 C-1.125 1.125 -1.125 1.125 0 0 Z " fill="#214659" transform="translate(303,184)"/>
<path d="M0 0 C0.33 0 0.66 0 1 0 C1 7.26 1 14.52 1 22 C-6 26 -6 26 -8 26 C-8.33 21.05 -8.66 16.1 -9 11 C-6.36 10.34 -3.72 9.68 -1 9 C-0.67 6.03 -0.34 3.06 0 0 Z " fill="#D4E6EA" transform="translate(81,216)"/>
<path d="M0 0 C6.88940671 0.43632909 13.35751464 1.08389845 20 3 C20 3.66 20 4.32 20 5 C19.31292969 5.19335938 18.62585938 5.38671875 17.91796875 5.5859375 C17.01691406 5.84632813 16.11585937 6.10671875 15.1875 6.375 C13.84751953 6.75785156 13.84751953 6.75785156 12.48046875 7.1484375 C9.79532104 7.95266661 9.79532104 7.95266661 7 10 C5.68 10 4.36 10 3 10 C2.01 6.7 1.02 3.4 0 0 Z " fill="#E6F3F3" transform="translate(62,290)"/>
<path d="M0 0 C1.66666667 0.33333333 3.33333333 0.66666667 5 1 C6.3921875 1.2784375 6.3921875 1.2784375 7.8125 1.5625 C8.534375 1.706875 9.25625 1.85125 10 2 C9.01 2.495 9.01 2.495 8 3 C8 7.29 8 11.58 8 16 C3 15 3 15 0 13 C-0.29296875 9.9609375 -0.29296875 9.9609375 -0.1875 6.375 C-0.16042969 5.18648437 -0.13335937 3.99796875 -0.10546875 2.7734375 C-0.07066406 1.85820312 -0.03585937 0.94296875 0 0 Z " fill="#D9EEEF" transform="translate(364,225)"/>
<path d="M0 0 C7.59 0 15.18 0 23 0 C23 2.31 23 4.62 23 7 C18.38 6.34 13.76 5.68 9 5 C9 4.34 9 3.68 9 3 C8.01 2.67 7.02 2.34 6 2 C7.07121094 2.01160156 8.14242187 2.02320313 9.24609375 2.03515625 C10.64322743 2.04453299 12.04036299 2.05363331 13.4375 2.0625 C14.14455078 2.07087891 14.85160156 2.07925781 15.58007812 2.08789062 C17.38693559 2.09653588 19.19387603 2.05220011 21 2 C21.33 1.67 21.66 1.34 22 1 C14.74 1 7.48 1 0 1 C0 0.67 0 0.34 0 0 Z " fill="#2A4D65" transform="translate(166,182)"/>
<path d="M0 0 C21.45 0 42.9 0 65 0 C65.99 1.98 65.99 1.98 67 4 C66.30409256 3.67657623 65.60818512 3.35315247 64.89118958 3.01992798 C61.66983331 1.88352675 59.15181598 1.72283278 55.7409668 1.68115234 C53.87960335 1.65134781 53.87960335 1.65134781 51.9806366 1.62094116 C50.63683246 1.60906671 49.29302643 1.59740374 47.94921875 1.5859375 C46.56629799 1.56721502 45.18338853 1.5476408 43.80049133 1.5272522 C40.17233962 1.47603882 36.54415091 1.43635569 32.91583252 1.39910889 C29.20877004 1.35900125 25.50186001 1.30793985 21.79492188 1.2578125 C14.53005271 1.16118118 7.26510945 1.07673587 0 1 C0 0.67 0 0.34 0 0 Z " fill="#184753" transform="translate(310,256)"/>
<path d="M0 0 C-0.66 0 -1.32 0 -2 0 C-2 0.66 -2 1.32 -2 2 C-4.97 2 -7.94 2 -11 2 C-11 2.66 -11 3.32 -11 4 C-15.14218584 5.48869536 -19.08276599 6.44039514 -23.4375 7.0625 C-24.56414062 7.22621094 -25.69078125 7.38992188 -26.8515625 7.55859375 C-27.89054687 7.70425781 -28.92953125 7.84992188 -30 8 C-30.79148437 8.11472656 -31.58296875 8.22945313 -32.3984375 8.34765625 C-33.93161705 8.56981084 -35.46567383 8.78590798 -37 9 C-34.01221979 7.00814653 -31.84303868 6.25660481 -28.4140625 5.30859375 C-27.31835938 5.00373047 -26.22265625 4.69886719 -25.09375 4.38476562 C-23.9490625 4.07216797 -22.804375 3.75957031 -21.625 3.4375 C-20.48804688 3.12103516 -19.35109375 2.80457031 -18.1796875 2.47851562 C-4.17636399 -1.39212133 -4.17636399 -1.39212133 0 0 Z " fill="#D3F4F3" transform="translate(321,274)"/>
<path d="M0 0 C-3.0331759 3.0331759 -6.71792433 2.74141659 -10.8125 3.125 C-12.08734253 3.25237549 -12.08734253 3.25237549 -13.38793945 3.38232422 C-20.27973372 4.02840962 -27.07768329 4.22370144 -34 4 C-34 3.67 -34 3.34 -34 3 C-22.56932516 1.06805496 -11.62557295 -0.51968621 0 0 Z " fill="#D6F4F2" transform="translate(382,263)"/>
<path d="M0 0 C0.33 0.66 0.66 1.32 1 2 C-0.79389998 5.54765163 -2.99431636 8.2423019 -5.80078125 11.03125 C-6.53103516 11.75957031 -7.26128906 12.48789062 -8.01367188 13.23828125 C-8.77228516 13.98464844 -9.53089844 14.73101562 -10.3125 15.5 C-11.05951172 16.24636719 -11.80652344 16.99273437 -12.57617188 17.76171875 C-16.56831547 21.72231775 -20.61123525 25.48340631 -25 29 C-25.66 28.67 -26.32 28.34 -27 28 C-26.34366577 27.39696045 -26.34366577 27.39696045 -25.67407227 26.78173828 C-11.75125862 14.37444031 -11.75125862 14.37444031 0 0 Z " fill="#BFD7DD" transform="translate(368,355)"/>
<path d="M0 0 C3.74941253 -0.17432891 7.49778509 -0.28085841 11.25 -0.375 C12.84521484 -0.45041016 12.84521484 -0.45041016 14.47265625 -0.52734375 C22.19617527 -0.67307052 22.19617527 -0.67307052 24.62695312 1.36230469 C25.734375 3.0234375 25.734375 3.0234375 27 6 C25.68 5.67 24.36 5.34 23 5 C23 4.34 23 3.68 23 3 C20.27498092 2.09166031 18.37766029 1.81640015 15.55078125 1.68359375 C14.70322266 1.64169922 13.85566406 1.59980469 12.98242188 1.55664062 C12.10134766 1.51732422 11.22027344 1.47800781 10.3125 1.4375 C9.41982422 1.39431641 8.52714844 1.35113281 7.60742188 1.30664062 C5.40509892 1.20064647 3.20266527 1.09857949 1 1 C1 2.98 1 4.96 1 7 C5.62 7 10.24 7 15 7 C15 7.33 15 7.66 15 8 C10.05 8 5.1 8 0 8 C0 5.36 0 2.72 0 0 Z " fill="#556C75" transform="translate(256,182)"/>
<path d="M0 0 C-1.01953125 1.984375 -1.01953125 1.984375 -3 4 C-5.71229503 4.29642569 -7.99739732 4.38061189 -10.6875 4.25 C-11.7403418 4.22292969 -11.7403418 4.22292969 -12.81445312 4.1953125 C-14.54355436 4.14826213 -16.27195205 4.07651873 -18 4 C-18 4.66 -18 5.32 -18 6 C-20.64 6 -23.28 6 -26 6 C-22.11039684 3.70957055 -17.91395761 2.87832498 -13.5625 1.875 C-12.81162109 1.69324219 -12.06074219 1.51148438 -11.28710938 1.32421875 C-7.45277934 0.42718112 -3.96773046 -0.23664396 0 0 Z " fill="#CDEFED" transform="translate(347,267)"/>
<path d="M0 0 C0.33 0.66 0.66 1.32 1 2 C-3.46153846 8.92307692 -3.46153846 8.92307692 -6 11 C-6.66 11 -7.32 11 -8 11 C-8 11.66 -8 12.32 -8 13 C-5.525 13.99 -5.525 13.99 -3 15 C-3.99 15.495 -3.99 15.495 -5 16 C-7.625 15.0625 -7.625 15.0625 -10 14 C-9.46823005 9.86186295 -7.22067834 7.72917682 -4.4375 4.75 C-3.61121094 3.85796875 -2.78492188 2.9659375 -1.93359375 2.046875 C-1.29550781 1.37140625 -0.65742188 0.6959375 0 0 Z " fill="#C9E2E3" transform="translate(166,381)"/>
<path d="M0 0 C0 5.01392926 -2.78055114 7.89749688 -6.1875 11.3125 C-7.115625 12.199375 -8.04375 13.08625 -9 14 C-9.99 13.67 -10.98 13.34 -12 13 C-10.56354149 11.39490066 -9.12579294 9.79095576 -7.6875 8.1875 C-6.88699219 7.29417969 -6.08648437 6.40085937 -5.26171875 5.48046875 C-3.54775419 3.60073214 -1.82122396 1.77407253 0 0 Z " fill="#2D4C58" transform="translate(88,103)"/>
<path d="M0 0 C-1.1446875 0.6496875 -1.1446875 0.6496875 -2.3125 1.3125 C-4.95340653 2.80736417 -4.95340653 2.80736417 -6.5 4.625 C-8.51536084 6.4724141 -10.33833049 6.64031493 -13 7 C-13 5.68 -13 4.36 -13 3 C-11.21189234 2.30329584 -9.41937948 1.61788811 -7.625 0.9375 C-6.62726563 0.55464844 -5.62953125 0.17179687 -4.6015625 -0.22265625 C-2 -1 -2 -1 0 0 Z " fill="#335662" transform="translate(295,297)"/>
<path d="M0 0 C1.125 3.75 1.125 3.75 0 6 C1.32 6.66 2.64 7.32 4 8 C3.67 8.99 3.34 9.98 3 11 C0.03 10.505 0.03 10.505 -3 10 C-2.25 3.375 -2.25 3.375 0 0 Z " fill="#23515E" transform="translate(133,267)"/>
<path d="M0 0 C0.66 0.33 1.32 0.66 2 1 C1.01 2.485 1.01 2.485 0 4 C-2.32716 4.37400786 -4.66117862 4.70764733 -7 5 C-7.66 5.66 -8.32 6.32 -9 7 C-11.65537372 7.56520003 -14.29144713 7.73788198 -17 8 C-14.26965065 5.26965065 -11.02687784 4.21336269 -7.5 2.8125 C-6.81035156 2.52697266 -6.12070313 2.24144531 -5.41015625 1.94726562 C-3.63095824 1.23454595 -1.81682212 0.6104689 0 0 Z " fill="#CFEAEB" transform="translate(256,292)"/>
<path d="M0 0 C5.96215955 0.40313534 11.37199235 0.85599709 17 3 C18.66088045 3.36106097 20.32618981 3.70462173 22 4 C22 4.33 22 4.66 22 5 C17.71 4.67 13.42 4.34 9 4 C9 3.34 9 2.68 9 2 C6.03 1.67 3.06 1.34 0 1 C0 0.67 0 0.34 0 0 Z " fill="#576D76" transform="translate(322,186)"/>
<path d="M0 0 C3.375 -0.125 3.375 -0.125 7 0 C9 2 9 2 9 5 C7.35 5.33 5.7 5.66 4 6 C3.67 5.01 3.34 4.02 3 3 C3.33 2.34 3.66 1.68 4 1 C2.68 0.67 1.36 0.34 0 0 Z " fill="#2E5265" transform="translate(135,184)"/>
<path d="M0 0 C0.33 0 0.66 0 1 0 C0.125 7.875 0.125 7.875 -1 9 C-3.33297433 9.04092937 -5.66705225 9.04241723 -8 9 C-8 8.34 -8 7.68 -8 7 C-5 6 -5 6 -2 7 C-1.34 4.69 -0.68 2.38 0 0 Z " fill="#C8D9DD" transform="translate(388,268)"/>
<path d="M0 0 C-0.99 0 -1.98 0 -3 0 C-3.66 1.32 -4.32 2.64 -5 4 C-7.64 3.67 -10.28 3.34 -13 3 C-8.8341563 0.22277086 -4.9360889 -1.89849573 0 0 Z " fill="#AECED3" transform="translate(285,416)"/>
<path d="M0 0 C1.77260631 0.45142775 3.5430368 0.91140523 5.3125 1.375 C6.79169922 1.75785156 6.79169922 1.75785156 8.30078125 2.1484375 C11 3 11 3 14 5 C10.04 5 6.08 5 2 5 C1.34 3.35 0.68 1.7 0 0 Z " fill="#BCD8DD" transform="translate(161,415)"/>
<path d="M0 0 C0.33 0.66 0.66 1.32 1 2 C2.98 1.67 4.96 1.34 7 1 C5.35 2.65 3.7 4.3 2 6 C0.68 5.34 -0.64 4.68 -2 4 C-1.34 2.68 -0.68 1.36 0 0 Z " fill="#79BFB9" transform="translate(189,355)"/>
<path d="M0 0 C-4.81384901 3.81788025 -10.10647769 3.70067925 -16 4 C-13.41588269 2.27725513 -11.45097344 1.31104478 -8.5625 0.3125 C-7.41974609 -0.09548828 -7.41974609 -0.09548828 -6.25390625 -0.51171875 C-3.78170279 -1.04729142 -2.37016716 -0.80445309 0 0 Z " fill="#D0F1EE" transform="translate(279,286)"/>
<path d="M0 0 C6.36455647 -0.50916452 10.05124995 -0.18740389 15 4 C15 4.33 15 4.66 15 5 C13.35 5 11.7 5 10 5 C9.34 3.68 8.68 2.36 8 1 C5.36 1 2.72 1 0 1 C0 0.67 0 0.34 0 0 Z " fill="#67B3B2" transform="translate(363,257)"/>
<path d="M0 0 C-0.33 2.97 -0.66 5.94 -1 9 C-3 7.75 -3 7.75 -5 6 C-5 4.68 -5 3.36 -5 2 C-2 0 -2 0 0 0 Z " fill="#D5EAEB" transform="translate(101,345)"/>
<path d="M0 0 C-5.02416822 3.34944548 -9.09951257 3.09834146 -15 3 C-9.97583178 -0.34944548 -5.90048743 -0.09834146 0 0 Z " fill="#DDF6F5" transform="translate(170,344)"/>
<path d="M0 0 C2.64 0.33 5.28 0.66 8 1 C8.33 2.32 8.66 3.64 9 5 C6.03 4.01 3.06 3.02 0 2 C0 1.34 0 0.68 0 0 Z " fill="#2B4A58" transform="translate(361,207)"/>
<path d="M0 0 C0.66 0.33 1.32 0.66 2 1 C1.38511719 1.59748047 1.38511719 1.59748047 0.7578125 2.20703125 C0.21898437 2.73683594 -0.31984375 3.26664063 -0.875 3.8125 C-1.40867188 4.33457031 -1.94234375 4.85664063 -2.4921875 5.39453125 C-4.20776561 7.13259904 -4.20776561 7.13259904 -6 10 C-6.66 10 -7.32 10 -8 10 C-6.44303593 6.17836093 -3.96591316 3.81381505 -1 1 C-0.67 0.67 -0.34 0.34 0 0 Z " fill="#3F5863" transform="translate(211,144)"/>
<path d="M0 0 C0.33 0 0.66 0 1 0 C1.36552803 1.41377782 1.71695495 2.83120576 2.0625 4.25 C2.25972656 5.03890625 2.45695312 5.8278125 2.66015625 6.640625 C3.01497267 9.10394822 2.76877544 10.65604132 2 13 C1.34 12.67 0.68 12.34 0 12 C0 8.04 0 4.08 0 0 Z " fill="#BDD2DA" transform="translate(37,265)"/>
<path d="M0 0 C1.5 1.375 1.5 1.375 3 3 C3 3.66 3 4.32 3 5 C1.46875 6.2890625 1.46875 6.2890625 -0.5 7.625 C-1.1496875 8.07101562 -1.799375 8.51703125 -2.46875 8.9765625 C-2.9740625 9.31429688 -3.479375 9.65203125 -4 10 C-2.66666667 6.66666667 -1.33333333 3.33333333 0 0 Z " fill="#669895" transform="translate(245,383)"/>
<path d="M0 0 C1 2 1 2 1 6 C-1.5 8.25 -1.5 8.25 -4 10 C-4.66 9.67 -5.32 9.34 -6 9 C-4.02 6.03 -2.04 3.06 0 0 Z " fill="#334F5E" transform="translate(68,127)"/>
<path d="M0 0 C1.32 0 2.64 0 4 0 C3.25 7.75 3.25 7.75 1 10 C0.3125 8.3125 0.3125 8.3125 0 6 C1.4375 3.25 1.4375 3.25 3 1 C2.01 0.67 1.02 0.34 0 0 Z " fill="#234B56" transform="translate(213,408)"/>
<path d="M0 0 C1.65 0.33 3.3 0.66 5 1 C4.01 2.485 4.01 2.485 3 4 C0.69 3.67 -1.62 3.34 -4 3 C-2.68 2.67 -1.36 2.34 0 2 C0 1.34 0 0.68 0 0 Z " fill="#E5F1F0" transform="translate(169,395)"/>
<path d="M0 0 C0.66 0.33 1.32 0.66 2 1 C0.38405168 3.04119788 -1.2856382 5.04072937 -3 7 C-3.66 7 -4.32 7 -5 7 C-5.33 7.66 -5.66 8.32 -6 9 C-6 5 -6 5 -4.6875 3.515625 C-3.125 2.34375 -1.5625 1.171875 0 0 Z " fill="#4E8785" transform="translate(122,361)"/>
<path d="M0 0 C0.66 0.33 1.32 0.66 2 1 C0.35 2.98 -1.3 4.96 -3 7 C-3.99 6.34 -4.98 5.68 -6 5 C-4.02 3.35 -2.04 1.7 0 0 Z " fill="#2F4E59" transform="translate(106,86)"/>
<path d="M0 0 C0.33 1.32 0.66 2.64 1 4 C-0.65 5.32 -2.3 6.64 -4 8 C-4.66 7.34 -5.32 6.68 -6 6 C-4.02 4.02 -2.04 2.04 0 0 Z " fill="#7FBDB6" transform="translate(179,391)"/>
<path d="M0 0 C0.99 0.33 1.98 0.66 3 1 C3.33 3.31 3.66 5.62 4 8 C3.01 7.67 2.02 7.34 1 7 C-0.1875 3.9375 -0.1875 3.9375 -1 1 C-0.67 0.67 -0.34 0.34 0 0 Z " fill="#62A8A6" transform="translate(296,381)"/>
<path d="M0 0 C1.65 0.33 3.3 0.66 5 1 C5 1.99 5 2.98 5 4 C3.35 4.33 1.7 4.66 0 5 C-0.33 4.01 -0.66 3.02 -1 2 C-0.67 1.34 -0.34 0.68 0 0 Z " fill="#D9E9E7" transform="translate(126,304)"/>
<path d="M0 0 C0.66 0.33 1.32 0.66 2 1 C1.01 2.485 1.01 2.485 0 4 C-1.9453125 4.29296875 -1.9453125 4.29296875 -4.125 4.1875 C-5.40375 4.125625 -6.6825 4.06375 -8 4 C-5.31143836 2.20762558 -3.0466145 1.01553817 0 0 Z " fill="#4C6570" transform="translate(283,396)"/>
<path d="M0 0 C0.33 0 0.66 0 1 0 C1.25532751 3.06393013 1.21861333 4.63233212 -0.375 7.3125 C-1.179375 8.1478125 -1.179375 8.1478125 -2 9 C-2.66 9 -3.32 9 -4 9 C-2.94124926 5.59687262 -1.99097846 2.98646769 0 0 Z " fill="#D2EDE9" transform="translate(232,377)"/>
<path d="M0 0 C2.62187494 1.04874998 3.79371361 1.64931313 5.25 4.125 C5.4975 4.74375 5.745 5.3625 6 6 C3.03 5.505 3.03 5.505 0 5 C0 3.35 0 1.7 0 0 Z " fill="#2C4A58" transform="translate(248,367)"/>
<path d="M0 0 C2.31 0 4.62 0 7 0 C3.31265242 2.45823172 0.30300029 3.01242616 -4 4 C-4 3.34 -4 2.68 -4 2 C-2.68 2 -1.36 2 0 2 C0 1.34 0 0.68 0 0 Z " fill="#E2F4F3" transform="translate(155,356)"/>
<path d="M0 0 C3.625 -0.1875 3.625 -0.1875 7 0 C6.67 0.66 6.34 1.32 6 2 C3.35139573 2.59355614 0.70802678 2.74209269 -2 3 C-1.34 2.01 -0.68 1.02 0 0 Z " fill="#CEEEEC" transform="translate(265,304)"/>
<path d="M0 0 C1.45742463 -0.08096803 2.91612807 -0.13917774 4.375 -0.1875 C5.18710938 -0.22230469 5.99921875 -0.25710938 6.8359375 -0.29296875 C7.55007812 -0.19628906 8.26421875 -0.09960938 9 0 C9.66 0.99 10.32 1.98 11 3 C6.88425629 2.5251065 3.63616656 1.9789756 0 0 Z " fill="#C4D3D7" transform="translate(102,283)"/>
<path d="M0 0 C0.99 0 1.98 0 3 0 C3 0.66 3 1.32 3 2 C3.66 2.33 4.32 2.66 5 3 C4.01 3.495 4.01 3.495 3 4 C2.01 3.34 1.02 2.68 0 2 C0 1.34 0 0.68 0 0 Z M1 4 C2.32 4.66 3.64 5.32 5 6 C3.02 6 1.04 6 -1 6 C-0.34 5.34 0.32 4.68 1 4 Z " fill="#0E354C" transform="translate(320,187)"/>
<path d="M0 0 C2.31 0.33 4.62 0.66 7 1 C3.375 4 3.375 4 0 4 C0 2.68 0 1.36 0 0 Z " fill="#213C49" transform="translate(303,184)"/>
<path d="M0 0 C0.33 0.66 0.66 1.32 1 2 C-0.8125 5 -0.8125 5 -3 8 C-3.99 8 -4.98 8 -6 8 C-4.02 5.36 -2.04 2.72 0 0 Z " fill="#CCDEE1" transform="translate(89,129)"/>
<path d="M0 0 C0.66 0.33 1.32 0.66 2 1 C0.29374499 3.78388975 -0.47626739 4.85384206 -3.6875 5.75 C-4.8321875 5.87375 -4.8321875 5.87375 -6 6 C-4 4 -2 2 0 0 Z " fill="#DBF3F0" transform="translate(200,353)"/>
<path d="M0 0 C0 0.99 0 1.98 0 3 C-3 5.1875 -3 5.1875 -6 7 C-6.66 6.67 -7.32 6.34 -8 6 C-5.36 4.02 -2.72 2.04 0 0 Z " fill="#435A68" transform="translate(118,348)"/>
<path d="M0 0 C0.66 0.33 1.32 0.66 2 1 C-0.75 3.0625 -0.75 3.0625 -4 5 C-6.203125 4.62109375 -6.203125 4.62109375 -8 4 C-6.71349294 3.30289269 -5.42059335 2.61757124 -4.125 1.9375 C-3.40570313 1.55464844 -2.68640625 1.17179687 -1.9453125 0.77734375 C-1.30335938 0.52082031 -0.66140625 0.26429688 0 0 Z " fill="#597379" transform="translate(134,339)"/>
<path d="M0 0 C3.3 0 6.6 0 10 0 C10.66 1.32 11.32 2.64 12 4 C11.319375 3.690625 10.63875 3.38125 9.9375 3.0625 C6.63034088 1.86629351 3.48454122 1.40994603 0 1 C0 0.67 0 0.34 0 0 Z " fill="#245766" transform="translate(365,256)"/>
<path d="M0 0 C0.33 0 0.66 0 1 0 C1 2.97 1 5.94 1 9 C0.34 9 -0.32 9 -1 9 C-1.625 5.625 -1.625 5.625 -2 2 C-1.34 1.34 -0.68 0.68 0 0 Z " fill="#375460" transform="translate(56,196)"/>
<path d="M0 0 C0.66 0.99 1.32 1.98 2 3 C4.56282742 3.72965366 4.56282742 3.72965366 7 4 C7 4.66 7 5.32 7 6 C4.69 5.67 2.38 5.34 0 5 C-0.5625 3.0625 -0.5625 3.0625 -1 1 C-0.67 0.67 -0.34 0.34 0 0 Z " fill="#4D616D" transform="translate(302,185)"/>
<path d="M0 0 C2 2 2 2 2.125 4.625 C2.08375 5.40875 2.0425 6.1925 2 7 C1.01 7.33 0.02 7.66 -1 8 C-0.67 5.36 -0.34 2.72 0 0 Z " fill="#C5DBE3" transform="translate(404,281)"/>
<path d="M0 0 C4.455 0.99 4.455 0.99 9 2 C9 2.33 9 2.66 9 3 C6.36 3 3.72 3 1 3 C0.67 2.01 0.34 1.02 0 0 Z " fill="#CFE1E4" transform="translate(140,280)"/>
<path d="M0 0 C-3.85756507 2.15305957 -6.55129785 3.39253254 -11 3 C-7.70039114 0.18922208 -4.22288017 -2.11144009 0 0 Z " fill="#4A6370" transform="translate(83,196)"/>
</svg>
